<mxfile host="app.diagrams.net" modified="2023-09-30T22:20:20.179Z" agent="Mozilla/5.0 (Windows NT 10.0; Win64; x64; rv:109.0) Gecko/20100101 Firefox/118.0" etag="IeVzQhjexegoOL0h_S2s" version="21.8.0" type="github">
  <diagram name="Page-1" id="13e1069c-82ec-6db2-03f1-153e76fe0fe0">
    <mxGraphModel dx="1674" dy="754" grid="1" gridSize="10" guides="1" tooltips="1" connect="1" arrows="1" fold="1" page="1" pageScale="1" pageWidth="1100" pageHeight="850" background="none" math="0" shadow="0">
      <root>
        <mxCell id="0" />
        <mxCell id="1" parent="0" />
        <mxCell id="QAYbuf7ycFHNcCj2fmit-9" value="&lt;div&gt;Empresa&lt;/div&gt;&lt;div&gt;&lt;br&gt;&lt;/div&gt;" style="swimlane;fontStyle=1;align=center;verticalAlign=top;childLayout=stackLayout;horizontal=1;startSize=26;horizontalStack=0;resizeParent=1;resizeParentMax=0;resizeLast=0;collapsible=1;marginBottom=0;whiteSpace=wrap;html=1;" parent="1" vertex="1">
          <mxGeometry x="750" y="70" width="220" height="220" as="geometry" />
        </mxCell>
        <mxCell id="QAYbuf7ycFHNcCj2fmit-10" value="&lt;div&gt;- nombre: String&lt;/div&gt;&lt;div&gt;&lt;br&gt;&lt;/div&gt;&lt;div&gt;- cuit: String&lt;/div&gt;&lt;div&gt;&lt;br&gt;&lt;/div&gt;&lt;div&gt;- empleados: Empleado&lt;br&gt;&lt;/div&gt;" style="text;strokeColor=none;fillColor=none;align=left;verticalAlign=top;spacingLeft=4;spacingRight=4;overflow=hidden;rotatable=0;points=[[0,0.5],[1,0.5]];portConstraint=eastwest;whiteSpace=wrap;html=1;" parent="QAYbuf7ycFHNcCj2fmit-9" vertex="1">
          <mxGeometry y="26" width="220" height="74" as="geometry" />
        </mxCell>
        <mxCell id="QAYbuf7ycFHNcCj2fmit-11" value="" style="line;strokeWidth=1;fillColor=none;align=left;verticalAlign=middle;spacingTop=-1;spacingLeft=3;spacingRight=3;rotatable=0;labelPosition=right;points=[];portConstraint=eastwest;strokeColor=inherit;" parent="QAYbuf7ycFHNcCj2fmit-9" vertex="1">
          <mxGeometry y="100" width="220" height="8" as="geometry" />
        </mxCell>
        <mxCell id="QAYbuf7ycFHNcCj2fmit-12" value="&lt;div&gt;+ montoTotalNeto(): double&lt;/div&gt;&lt;div&gt;+ montoTotalBruto(): double&lt;/div&gt;&lt;div&gt;+ montoTotalRetenciones(): double&lt;br&gt;&lt;/div&gt;&lt;div&gt;&lt;br&gt;&lt;/div&gt;&lt;div&gt;+liquidarSueltos()&lt;br&gt;&lt;/div&gt;" style="text;strokeColor=none;fillColor=none;align=left;verticalAlign=top;spacingLeft=4;spacingRight=4;overflow=hidden;rotatable=0;points=[[0,0.5],[1,0.5]];portConstraint=eastwest;whiteSpace=wrap;html=1;" parent="QAYbuf7ycFHNcCj2fmit-9" vertex="1">
          <mxGeometry y="108" width="220" height="112" as="geometry" />
        </mxCell>
        <mxCell id="QAYbuf7ycFHNcCj2fmit-13" value="&lt;i&gt;Empleado&lt;/i&gt;" style="swimlane;fontStyle=1;align=center;verticalAlign=top;childLayout=stackLayout;horizontal=1;startSize=26;horizontalStack=0;resizeParent=1;resizeParentMax=0;resizeLast=0;collapsible=1;marginBottom=0;whiteSpace=wrap;html=1;" parent="1" vertex="1">
          <mxGeometry x="250" y="120" width="250" height="300" as="geometry">
            <mxRectangle x="180" y="150" width="50" height="40" as="alternateBounds" />
          </mxGeometry>
        </mxCell>
        <mxCell id="QAYbuf7ycFHNcCj2fmit-14" value="&lt;div&gt;&lt;i&gt;- nombre: String&lt;/i&gt;&lt;/div&gt;&lt;div&gt;&lt;i&gt;- direccion: String&lt;/i&gt;&lt;/div&gt;&lt;div&gt;&lt;i&gt;- estadoCivil: String&lt;br&gt;&lt;/i&gt;&lt;/div&gt;&lt;div&gt;&lt;i&gt;- fechaDeNacimiento:Date&lt;/i&gt;&lt;/div&gt;&lt;div&gt;&lt;i&gt;- sueldoBasico: double&lt;br&gt;&lt;/i&gt;&lt;/div&gt;&lt;div&gt;&lt;i&gt;- reciboDeHaberes: ReciboDeHaberes&lt;br&gt;&lt;/i&gt;&lt;/div&gt;" style="text;strokeColor=none;fillColor=none;align=left;verticalAlign=top;spacingLeft=4;spacingRight=4;overflow=hidden;rotatable=0;points=[[0,0.5],[1,0.5]];portConstraint=eastwest;whiteSpace=wrap;html=1;" parent="QAYbuf7ycFHNcCj2fmit-13" vertex="1">
          <mxGeometry y="26" width="250" height="144" as="geometry" />
        </mxCell>
        <mxCell id="QAYbuf7ycFHNcCj2fmit-15" value="" style="line;strokeWidth=1;fillColor=none;align=left;verticalAlign=middle;spacingTop=-1;spacingLeft=3;spacingRight=3;rotatable=0;labelPosition=right;points=[];portConstraint=eastwest;strokeColor=inherit;" parent="QAYbuf7ycFHNcCj2fmit-13" vertex="1">
          <mxGeometry y="170" width="250" height="8" as="geometry" />
        </mxCell>
        <mxCell id="QAYbuf7ycFHNcCj2fmit-16" value="&lt;div&gt;&lt;i&gt;+ calcularEdad(): int&lt;/i&gt;&lt;/div&gt;&lt;div&gt;&lt;i&gt;&lt;br&gt;&lt;/i&gt;&lt;/div&gt;&lt;div&gt;&lt;i&gt;+calcularSueldoBruto(): double&lt;/i&gt;&lt;/div&gt;&lt;div&gt;&lt;i&gt;&lt;br&gt;&lt;/i&gt;&lt;/div&gt;&lt;div&gt;&lt;i&gt;+calcularSueldoNeto(): double&lt;br&gt;&lt;/i&gt;&lt;/div&gt;&lt;div&gt;&lt;i&gt;&lt;br&gt;&lt;/i&gt;&lt;/div&gt;&lt;div&gt;&lt;i&gt;+calcularRetenciones(): double&lt;/i&gt;&lt;br&gt;&lt;/div&gt;&lt;div&gt;&lt;br&gt;&lt;/div&gt;" style="text;strokeColor=none;fillColor=none;align=left;verticalAlign=top;spacingLeft=4;spacingRight=4;overflow=hidden;rotatable=0;points=[[0,0.5],[1,0.5]];portConstraint=eastwest;whiteSpace=wrap;html=1;" parent="QAYbuf7ycFHNcCj2fmit-13" vertex="1">
          <mxGeometry y="178" width="250" height="122" as="geometry" />
        </mxCell>
        <mxCell id="QAYbuf7ycFHNcCj2fmit-17" value="" style="endArrow=block;endFill=1;html=1;edgeStyle=orthogonalEdgeStyle;align=left;verticalAlign=top;rounded=0;entryX=-0.025;entryY=0.851;entryDx=0;entryDy=0;entryPerimeter=0;exitX=1.009;exitY=0.787;exitDx=0;exitDy=0;exitPerimeter=0;" parent="1" source="QAYbuf7ycFHNcCj2fmit-14" target="QAYbuf7ycFHNcCj2fmit-10" edge="1">
          <mxGeometry x="-1" relative="1" as="geometry">
            <mxPoint x="470" y="370" as="sourcePoint" />
            <mxPoint x="630" y="370" as="targetPoint" />
            <Array as="points">
              <mxPoint x="630" y="230" />
              <mxPoint x="630" y="159" />
            </Array>
          </mxGeometry>
        </mxCell>
        <mxCell id="QAYbuf7ycFHNcCj2fmit-18" value="*" style="edgeLabel;resizable=0;html=1;align=left;verticalAlign=bottom;" parent="QAYbuf7ycFHNcCj2fmit-17" connectable="0" vertex="1">
          <mxGeometry x="-1" relative="1" as="geometry">
            <mxPoint x="18" y="-29" as="offset" />
          </mxGeometry>
        </mxCell>
        <mxCell id="QAYbuf7ycFHNcCj2fmit-19" value="1" style="text;html=1;align=center;verticalAlign=middle;resizable=0;points=[];autosize=1;strokeColor=none;fillColor=none;" parent="1" vertex="1">
          <mxGeometry x="720" y="130" width="30" height="30" as="geometry" />
        </mxCell>
        <mxCell id="QAYbuf7ycFHNcCj2fmit-20" value="&lt;div&gt;EmpleadoPermanente&lt;/div&gt;&lt;div&gt;&lt;br&gt;&lt;/div&gt;" style="swimlane;fontStyle=1;align=center;verticalAlign=top;childLayout=stackLayout;horizontal=1;startSize=26;horizontalStack=0;resizeParent=1;resizeParentMax=0;resizeLast=0;collapsible=1;marginBottom=0;whiteSpace=wrap;html=1;" parent="1" vertex="1">
          <mxGeometry x="30" y="470" width="160" height="78" as="geometry" />
        </mxCell>
        <mxCell id="QAYbuf7ycFHNcCj2fmit-21" value="&lt;div&gt;- cantidadHijos: int&lt;/div&gt;&lt;div&gt;- antiguedad: int&lt;br&gt;&lt;/div&gt;" style="text;strokeColor=none;fillColor=none;align=left;verticalAlign=top;spacingLeft=4;spacingRight=4;overflow=hidden;rotatable=0;points=[[0,0.5],[1,0.5]];portConstraint=eastwest;whiteSpace=wrap;html=1;" parent="QAYbuf7ycFHNcCj2fmit-20" vertex="1">
          <mxGeometry y="26" width="160" height="44" as="geometry" />
        </mxCell>
        <mxCell id="QAYbuf7ycFHNcCj2fmit-22" value="" style="line;strokeWidth=1;fillColor=none;align=left;verticalAlign=middle;spacingTop=-1;spacingLeft=3;spacingRight=3;rotatable=0;labelPosition=right;points=[];portConstraint=eastwest;strokeColor=inherit;" parent="QAYbuf7ycFHNcCj2fmit-20" vertex="1">
          <mxGeometry y="70" width="160" height="8" as="geometry" />
        </mxCell>
        <mxCell id="QAYbuf7ycFHNcCj2fmit-24" value="&lt;div&gt;EmpleadoTemporal&lt;/div&gt;&lt;div&gt;&lt;br&gt;&lt;/div&gt;&lt;div&gt;&lt;br&gt;&lt;/div&gt;" style="swimlane;fontStyle=1;align=center;verticalAlign=top;childLayout=stackLayout;horizontal=1;startSize=26;horizontalStack=0;resizeParent=1;resizeParentMax=0;resizeLast=0;collapsible=1;marginBottom=0;whiteSpace=wrap;html=1;" parent="1" vertex="1">
          <mxGeometry x="480" y="496" width="160" height="78" as="geometry" />
        </mxCell>
        <mxCell id="QAYbuf7ycFHNcCj2fmit-25" value="&lt;div&gt;- finDesignacion: Date&lt;br&gt;&lt;/div&gt;&lt;div&gt;- horasExtra:int&lt;br&gt;&lt;/div&gt;" style="text;strokeColor=none;fillColor=none;align=left;verticalAlign=top;spacingLeft=4;spacingRight=4;overflow=hidden;rotatable=0;points=[[0,0.5],[1,0.5]];portConstraint=eastwest;whiteSpace=wrap;html=1;" parent="QAYbuf7ycFHNcCj2fmit-24" vertex="1">
          <mxGeometry y="26" width="160" height="44" as="geometry" />
        </mxCell>
        <mxCell id="QAYbuf7ycFHNcCj2fmit-26" value="" style="line;strokeWidth=1;fillColor=none;align=left;verticalAlign=middle;spacingTop=-1;spacingLeft=3;spacingRight=3;rotatable=0;labelPosition=right;points=[];portConstraint=eastwest;strokeColor=inherit;" parent="QAYbuf7ycFHNcCj2fmit-24" vertex="1">
          <mxGeometry y="70" width="160" height="8" as="geometry" />
        </mxCell>
        <mxCell id="QAYbuf7ycFHNcCj2fmit-34" value="Extends" style="endArrow=block;endSize=16;endFill=0;html=1;rounded=0;exitX=0;exitY=0;exitDx=0;exitDy=0;" parent="1" source="QAYbuf7ycFHNcCj2fmit-24" target="QAYbuf7ycFHNcCj2fmit-16" edge="1">
          <mxGeometry width="160" relative="1" as="geometry">
            <mxPoint x="470" y="400" as="sourcePoint" />
            <mxPoint x="630" y="400" as="targetPoint" />
          </mxGeometry>
        </mxCell>
        <mxCell id="QAYbuf7ycFHNcCj2fmit-35" value="Extends" style="endArrow=block;endSize=16;endFill=0;html=1;rounded=0;exitX=0.963;exitY=-0.01;exitDx=0;exitDy=0;exitPerimeter=0;entryX=0.132;entryY=1.016;entryDx=0;entryDy=0;entryPerimeter=0;" parent="1" source="QAYbuf7ycFHNcCj2fmit-20" target="QAYbuf7ycFHNcCj2fmit-16" edge="1">
          <mxGeometry width="160" relative="1" as="geometry">
            <mxPoint x="470" y="400" as="sourcePoint" />
            <mxPoint x="630" y="400" as="targetPoint" />
          </mxGeometry>
        </mxCell>
        <mxCell id="QAYbuf7ycFHNcCj2fmit-36" value="ReciboDeHaberes" style="swimlane;fontStyle=1;align=center;verticalAlign=top;childLayout=stackLayout;horizontal=1;startSize=26;horizontalStack=0;resizeParent=1;resizeParentMax=0;resizeLast=0;collapsible=1;marginBottom=0;whiteSpace=wrap;html=1;" parent="1" vertex="1">
          <mxGeometry x="750" y="450" width="230" height="364" as="geometry" />
        </mxCell>
        <mxCell id="QAYbuf7ycFHNcCj2fmit-37" value="&lt;div&gt;- nombreEmpleado: String&lt;/div&gt;&lt;div&gt;- direccion: String&lt;/div&gt;&lt;div&gt;- fechaDeEmision: Date&lt;/div&gt;&lt;div&gt;- sueldoBruto: double&lt;/div&gt;&lt;div&gt;- sueldoNeto: double&lt;/div&gt;&lt;div&gt;&lt;br&gt;&lt;/div&gt;" style="text;strokeColor=none;fillColor=none;align=left;verticalAlign=top;spacingLeft=4;spacingRight=4;overflow=hidden;rotatable=0;points=[[0,0.5],[1,0.5]];portConstraint=eastwest;whiteSpace=wrap;html=1;" parent="QAYbuf7ycFHNcCj2fmit-36" vertex="1">
          <mxGeometry y="26" width="230" height="150" as="geometry" />
        </mxCell>
        <mxCell id="QAYbuf7ycFHNcCj2fmit-38" value="" style="line;strokeWidth=1;fillColor=none;align=left;verticalAlign=middle;spacingTop=-1;spacingLeft=3;spacingRight=3;rotatable=0;labelPosition=right;points=[];portConstraint=eastwest;strokeColor=inherit;" parent="QAYbuf7ycFHNcCj2fmit-36" vertex="1">
          <mxGeometry y="176" width="230" height="8" as="geometry" />
        </mxCell>
        <mxCell id="QAYbuf7ycFHNcCj2fmit-39" value="+ desgloceConceptos(): String" style="text;strokeColor=none;fillColor=none;align=left;verticalAlign=top;spacingLeft=4;spacingRight=4;overflow=hidden;rotatable=0;points=[[0,0.5],[1,0.5]];portConstraint=eastwest;whiteSpace=wrap;html=1;" parent="QAYbuf7ycFHNcCj2fmit-36" vertex="1">
          <mxGeometry y="184" width="230" height="180" as="geometry" />
        </mxCell>
        <mxCell id="QAYbuf7ycFHNcCj2fmit-40" value="" style="endArrow=block;endFill=1;html=1;edgeStyle=orthogonalEdgeStyle;align=left;verticalAlign=top;rounded=0;exitX=1.008;exitY=1;exitDx=0;exitDy=0;exitPerimeter=0;entryX=-0.017;entryY=-0.007;entryDx=0;entryDy=0;entryPerimeter=0;" parent="1" source="QAYbuf7ycFHNcCj2fmit-16" target="QAYbuf7ycFHNcCj2fmit-37" edge="1">
          <mxGeometry x="-1" relative="1" as="geometry">
            <mxPoint x="470" y="400" as="sourcePoint" />
            <mxPoint x="630" y="400" as="targetPoint" />
            <Array as="points">
              <mxPoint x="570" y="420" />
              <mxPoint x="570" y="440" />
              <mxPoint x="630" y="440" />
              <mxPoint x="630" y="475" />
            </Array>
          </mxGeometry>
        </mxCell>
        <mxCell id="QAYbuf7ycFHNcCj2fmit-41" value="1" style="edgeLabel;resizable=0;html=1;align=left;verticalAlign=bottom;" parent="QAYbuf7ycFHNcCj2fmit-40" connectable="0" vertex="1">
          <mxGeometry x="-1" relative="1" as="geometry" />
        </mxCell>
        <mxCell id="QAYbuf7ycFHNcCj2fmit-42" value="1" style="text;html=1;align=center;verticalAlign=middle;resizable=0;points=[];autosize=1;strokeColor=none;fillColor=none;" parent="1" vertex="1">
          <mxGeometry x="725" y="448" width="30" height="30" as="geometry" />
        </mxCell>
        <mxCell id="QAYbuf7ycFHNcCj2fmit-45" value="" style="endArrow=block;endFill=1;html=1;edgeStyle=orthogonalEdgeStyle;align=left;verticalAlign=top;rounded=0;exitX=0.486;exitY=1.027;exitDx=0;exitDy=0;exitPerimeter=0;entryX=0.5;entryY=0;entryDx=0;entryDy=0;" parent="1" source="QAYbuf7ycFHNcCj2fmit-12" target="QAYbuf7ycFHNcCj2fmit-36" edge="1">
          <mxGeometry x="-1" relative="1" as="geometry">
            <mxPoint x="470" y="400" as="sourcePoint" />
            <mxPoint x="630" y="400" as="targetPoint" />
            <Array as="points">
              <mxPoint x="857" y="400" />
              <mxPoint x="865" y="400" />
            </Array>
          </mxGeometry>
        </mxCell>
        <mxCell id="QAYbuf7ycFHNcCj2fmit-46" value="1" style="edgeLabel;resizable=0;html=1;align=left;verticalAlign=bottom;" parent="QAYbuf7ycFHNcCj2fmit-45" connectable="0" vertex="1">
          <mxGeometry x="-1" relative="1" as="geometry" />
        </mxCell>
        <mxCell id="QAYbuf7ycFHNcCj2fmit-47" value="*" style="text;html=1;align=center;verticalAlign=middle;resizable=0;points=[];autosize=1;strokeColor=none;fillColor=none;" parent="1" vertex="1">
          <mxGeometry x="870" y="425" width="30" height="30" as="geometry" />
        </mxCell>
        <mxCell id="x-siloH0jsfU-f1GD7YO-1" value="&lt;div&gt;EmpleadoContratado&lt;/div&gt;" style="swimlane;fontStyle=1;align=center;verticalAlign=top;childLayout=stackLayout;horizontal=1;startSize=26;horizontalStack=0;resizeParent=1;resizeParentMax=0;resizeLast=0;collapsible=1;marginBottom=0;whiteSpace=wrap;html=1;" vertex="1" parent="1">
          <mxGeometry x="210" y="620" width="250" height="78" as="geometry" />
        </mxCell>
        <mxCell id="x-siloH0jsfU-f1GD7YO-2" value="&lt;div&gt;- numeroContrato: int&lt;/div&gt;&lt;div&gt;- medioDePago: String&lt;br&gt;&lt;/div&gt;" style="text;strokeColor=none;fillColor=none;align=left;verticalAlign=top;spacingLeft=4;spacingRight=4;overflow=hidden;rotatable=0;points=[[0,0.5],[1,0.5]];portConstraint=eastwest;whiteSpace=wrap;html=1;" vertex="1" parent="x-siloH0jsfU-f1GD7YO-1">
          <mxGeometry y="26" width="250" height="44" as="geometry" />
        </mxCell>
        <mxCell id="x-siloH0jsfU-f1GD7YO-3" value="" style="line;strokeWidth=1;fillColor=none;align=left;verticalAlign=middle;spacingTop=-1;spacingLeft=3;spacingRight=3;rotatable=0;labelPosition=right;points=[];portConstraint=eastwest;strokeColor=inherit;" vertex="1" parent="x-siloH0jsfU-f1GD7YO-1">
          <mxGeometry y="70" width="250" height="8" as="geometry" />
        </mxCell>
        <mxCell id="x-siloH0jsfU-f1GD7YO-5" value="Extends" style="endArrow=block;endSize=16;endFill=0;html=1;rounded=0;exitX=0.444;exitY=0.019;exitDx=0;exitDy=0;exitPerimeter=0;" edge="1" parent="1" source="x-siloH0jsfU-f1GD7YO-1" target="QAYbuf7ycFHNcCj2fmit-16">
          <mxGeometry width="160" relative="1" as="geometry">
            <mxPoint x="600" y="450" as="sourcePoint" />
            <mxPoint x="760" y="450" as="targetPoint" />
          </mxGeometry>
        </mxCell>
      </root>
    </mxGraphModel>
  </diagram>
</mxfile>
